<svg width="200" height="200" viewBox="0 0 200 200" fill="none" xmlns="http://www.w3.org/2000/svg">
<path d="M100 0C155.228 0 200 44.7715 200 100C200 155.228 155.228 200 100 200C44.7715 200 0 155.228 0 100C0 44.7715 44.7715 0 100 0ZM100.5 18C54.9365 18 18 54.9365 18 100.5C18 146.063 54.9365 183 100.5 183C146.063 183 183 146.063 183 100.5C183 54.9365 146.063 18 100.5 18Z" fill="#4A4A4A"/>
<path d="M146.135 83.1878C155.58 109.137 142.2 137.829 116.251 147.273C90.3025 156.718 61.6103 143.339 52.1657 117.39L146.135 83.1878Z" fill="#282727"/>
<path d="M52.1657 117.39C42.7211 91.4409 56.1004 62.7488 82.0493 53.3042C107.998 43.8596 136.69 57.2389 146.135 83.1878L52.1657 117.39Z" fill="#4A4A4A"/>
<rect x="38.7798" y="111.928" width="123" height="20" rx="10" transform="rotate(-20 38.7798 111.928)" fill="#3B3B3B"/>
</svg>
